# Blender 3.5.0
# www.blender.org
mtllib Paddle.mtl
o Paddle.001
v 0.099863 1.197939 -0.100000
v 0.099863 -1.197939 -0.100000
v 0.099863 1.197939 0.100000
v 0.099863 -1.197939 0.100000
v -0.099863 1.197939 -0.100000
v -0.099863 -1.197939 -0.100000
v -0.099863 1.197939 0.100000
v -0.099863 -1.197939 0.100000
v 0.099863 1.197939 -0.100000
v 0.134504 1.232580 -0.134641
v 0.099863 -1.197939 -0.100000
v 0.134504 -1.232580 -0.134641
v 0.099863 1.197939 0.100000
v 0.134504 1.232580 0.134641
v 0.099863 -1.197939 0.100000
v 0.134504 -1.232580 0.134641
v -0.099863 1.197939 -0.100000
v -0.134504 1.232580 -0.134641
v -0.099863 -1.197939 -0.100000
v -0.134504 -1.232580 -0.134641
v -0.099863 1.197939 0.100000
v -0.134504 1.232580 0.134641
v -0.099863 -1.197939 0.100000
v -0.134504 -1.232580 0.134641
v 0.087183 1.215260 -0.087321
v -0.087183 1.215260 -0.087321
v -0.087183 1.215260 0.087321
v 0.087183 1.215260 0.087321
v 0.087183 -1.185260 0.117321
v 0.087183 1.185260 0.117321
v -0.087183 1.185260 0.117321
v -0.087183 -1.185260 0.117321
v -0.117183 -1.185260 0.087321
v -0.117183 1.185260 0.087321
v -0.117183 1.185260 -0.087321
v -0.117183 -1.185260 -0.087321
v -0.087183 -1.215260 -0.087321
v 0.087183 -1.215260 -0.087321
v 0.087183 -1.215260 0.087321
v -0.087183 -1.215260 0.087321
v 0.117183 -1.185260 -0.087321
v 0.117183 1.185260 -0.087321
v 0.117183 1.185260 0.087321
v 0.117183 -1.185260 0.087321
v -0.087183 -1.185260 -0.117321
v -0.087183 1.185260 -0.117321
v 0.087183 1.185260 -0.117321
v 0.087183 -1.185260 -0.117321
vn -0.0000 1.0000 -0.0000
vn -0.0000 -0.0000 1.0000
vn -1.0000 -0.0000 -0.0000
vn -0.0000 -1.0000 -0.0000
vn 1.0000 -0.0000 -0.0000
vn -0.0000 -0.0000 -1.0000
vn -0.0000 -0.5907 0.8069
vn -0.0000 0.9391 0.3437
vn 0.8069 -0.5907 -0.0000
vn 0.3437 0.9391 -0.0000
vn -0.0000 -0.5907 -0.8069
vn -0.0000 0.9391 -0.3437
vn -0.8069 -0.5907 -0.0000
vn -0.3437 0.9391 -0.0000
vn -0.8069 -0.0000 -0.5907
vn -0.3437 -0.0000 0.9391
vn -0.0000 -0.8069 -0.5907
vn -0.0000 -0.3437 0.9391
vn 0.8069 -0.0000 -0.5907
vn 0.3437 -0.0000 0.9391
vn -0.0000 0.8069 -0.5907
vn -0.0000 0.3437 0.9391
vn 0.5907 -0.0000 -0.8069
vn -0.9391 -0.0000 -0.3437
vn 0.5907 -0.8069 -0.0000
vn -0.9391 -0.3437 -0.0000
vn 0.5907 -0.0000 0.8069
vn -0.9391 -0.0000 0.3437
vn 0.5907 0.8069 -0.0000
vn -0.9391 0.3437 -0.0000
vn -0.0000 0.5907 0.8069
vn -0.0000 -0.9391 0.3437
vn -0.8069 0.5907 -0.0000
vn -0.3437 -0.9391 -0.0000
vn -0.0000 0.5907 -0.8069
vn -0.0000 -0.9391 -0.3437
vn 0.8069 0.5907 -0.0000
vn 0.3437 -0.9391 -0.0000
vn -0.5907 -0.0000 0.8069
vn 0.9391 -0.0000 0.3437
vn -0.5907 -0.8069 -0.0000
vn 0.9391 -0.3437 -0.0000
vn -0.5907 -0.0000 -0.8069
vn 0.9391 -0.0000 -0.3437
vn -0.5907 0.8069 -0.0000
vn 0.9391 0.3437 -0.0000
vn 0.8069 -0.0000 0.5907
vn 0.3437 -0.0000 -0.9391
vn -0.0000 -0.8069 0.5907
vn -0.0000 -0.3437 -0.9391
vn -0.8069 -0.0000 0.5907
vn -0.3437 -0.0000 -0.9391
vn -0.0000 0.8069 0.5907
vn -0.0000 0.3437 -0.9391
vt 0.625000 0.500000
vt 0.375000 0.500000
vt 0.625000 0.750000
vt 0.375000 0.750000
vt 0.875000 0.500000
vt 0.625000 0.250000
vt 0.125000 0.500000
vt 0.375000 0.250000
vt 0.875000 0.750000
vt 0.625000 1.000000
vt 0.625000 0.000000
vt 0.375000 0.000000
vt 0.375000 1.000000
vt 0.125000 0.750000
vt 0.625000 0.500000
vt 0.625000 0.500000
vt 0.375000 0.500000
vt 0.375000 0.500000
vt 0.625000 0.750000
vt 0.625000 0.750000
vt 0.375000 0.750000
vt 0.375000 0.750000
vt 0.875000 0.500000
vt 0.625000 0.250000
vt 0.875000 0.500000
vt 0.625000 0.250000
vt 0.125000 0.500000
vt 0.375000 0.250000
vt 0.125000 0.500000
vt 0.375000 0.250000
vt 0.875000 0.750000
vt 0.625000 1.000000
vt 0.625000 0.000000
vt 0.875000 0.750000
vt 0.625000 1.000000
vt 0.625000 0.000000
vt 0.375000 1.000000
vt 0.375000 0.000000
vt 0.125000 0.750000
vt 0.375000 1.000000
vt 0.375000 0.000000
vt 0.125000 0.750000
vt 0.625000 0.500000
vt 0.875000 0.500000
vt 0.875000 0.750000
vt 0.625000 0.750000
vt 0.375000 0.750000
vt 0.625000 0.750000
vt 0.625000 1.000000
vt 0.375000 1.000000
vt 0.375000 0.000000
vt 0.625000 0.000000
vt 0.625000 0.250000
vt 0.375000 0.250000
vt 0.125000 0.500000
vt 0.375000 0.500000
vt 0.375000 0.750000
vt 0.125000 0.750000
vt 0.375000 0.500000
vt 0.625000 0.500000
vt 0.625000 0.750000
vt 0.375000 0.750000
vt 0.375000 0.250000
vt 0.625000 0.250000
vt 0.625000 0.500000
vt 0.375000 0.500000
s 0
usemtl Material.001
f 5/5/1 3/3/1 1/1/1
f 3/3/2 8/13/2 4/4/2
f 7/11/3 6/8/3 8/12/3
f 2/2/4 8/14/4 6/7/4
f 1/1/5 4/4/5 2/2/5
f 5/6/6 2/2/6 6/8/6
f 5/5/1 7/9/1 3/3/1
f 3/3/2 7/10/2 8/13/2
f 7/11/3 5/6/3 6/8/3
f 2/2/4 4/4/4 8/14/4
f 1/1/5 3/3/5 4/4/5
f 5/6/6 1/1/6 2/2/6
usemtl TronShader.001
f 26/44/7 9/15/7 25/43/7
f 25/43/8 18/25/8 26/44/8
f 27/45/9 17/23/9 26/44/9
f 26/44/10 22/34/10 27/45/10
f 28/46/11 21/31/11 27/45/11
f 27/45/12 14/20/12 28/46/12
f 25/43/13 13/19/13 28/46/13
f 28/46/14 10/16/14 25/43/14
f 30/48/15 15/21/15 29/47/15
f 29/47/16 14/20/16 30/48/16
f 31/49/17 13/19/17 30/48/17
f 30/48/18 22/35/18 31/49/18
f 32/50/19 21/32/19 31/49/19
f 31/49/20 24/40/20 32/50/20
f 29/47/21 23/37/21 32/50/21
f 32/50/22 16/22/22 29/47/22
f 34/52/23 23/38/23 33/51/23
f 33/51/24 22/36/24 34/52/24
f 35/53/25 21/33/25 34/52/25
f 34/52/26 18/26/26 35/53/26
f 36/54/27 17/24/27 35/53/27
f 35/53/28 20/30/28 36/54/28
f 33/51/29 19/28/29 36/54/29
f 36/54/30 24/41/30 33/51/30
f 38/56/31 19/27/31 37/55/31
f 37/55/32 12/18/32 38/56/32
f 39/57/33 11/17/33 38/56/33
f 38/56/34 16/22/34 39/57/34
f 40/58/35 15/21/35 39/57/35
f 39/57/36 24/42/36 40/58/36
f 37/55/37 23/39/37 40/58/37
f 40/58/38 20/29/38 37/55/38
f 42/60/39 11/17/39 41/59/39
f 41/59/40 10/16/40 42/60/40
f 43/61/41 9/15/41 42/60/41
f 42/60/42 14/20/42 43/61/42
f 44/62/43 13/19/43 43/61/43
f 43/61/44 16/22/44 44/62/44
f 41/59/45 15/21/45 44/62/45
f 44/62/46 12/18/46 41/59/46
f 46/64/47 19/28/47 45/63/47
f 45/63/48 18/26/48 46/64/48
f 47/65/49 17/24/49 46/64/49
f 46/64/50 10/16/50 47/65/50
f 48/66/51 9/15/51 47/65/51
f 47/65/52 12/18/52 48/66/52
f 45/63/53 11/17/53 48/66/53
f 48/66/54 20/30/54 45/63/54
f 26/44/7 17/23/7 9/15/7
f 25/43/8 10/16/8 18/25/8
f 27/45/9 21/31/9 17/23/9
f 26/44/10 18/25/10 22/34/10
f 28/46/11 13/19/11 21/31/11
f 27/45/12 22/34/12 14/20/12
f 25/43/13 9/15/13 13/19/13
f 28/46/14 14/20/14 10/16/14
f 30/48/15 13/19/15 15/21/15
f 29/47/16 16/22/16 14/20/16
f 31/49/17 21/32/17 13/19/17
f 30/48/18 14/20/18 22/35/18
f 32/50/19 23/37/19 21/32/19
f 31/49/20 22/35/20 24/40/20
f 29/47/21 15/21/21 23/37/21
f 32/50/22 24/40/22 16/22/22
f 34/52/23 21/33/23 23/38/23
f 33/51/24 24/41/24 22/36/24
f 35/53/25 17/24/25 21/33/25
f 34/52/26 22/36/26 18/26/26
f 36/54/27 19/28/27 17/24/27
f 35/53/28 18/26/28 20/30/28
f 33/51/29 23/38/29 19/28/29
f 36/54/30 20/30/30 24/41/30
f 38/56/31 11/17/31 19/27/31
f 37/55/32 20/29/32 12/18/32
f 39/57/33 15/21/33 11/17/33
f 38/56/34 12/18/34 16/22/34
f 40/58/35 23/39/35 15/21/35
f 39/57/36 16/22/36 24/42/36
f 37/55/37 19/27/37 23/39/37
f 40/58/38 24/42/38 20/29/38
f 42/60/39 9/15/39 11/17/39
f 41/59/40 12/18/40 10/16/40
f 43/61/41 13/19/41 9/15/41
f 42/60/42 10/16/42 14/20/42
f 44/62/43 15/21/43 13/19/43
f 43/61/44 14/20/44 16/22/44
f 41/59/45 11/17/45 15/21/45
f 44/62/46 16/22/46 12/18/46
f 46/64/47 17/24/47 19/28/47
f 45/63/48 20/30/48 18/26/48
f 47/65/49 9/15/49 17/24/49
f 46/64/50 18/26/50 10/16/50
f 48/66/51 11/17/51 9/15/51
f 47/65/52 10/16/52 12/18/52
f 45/63/53 19/28/53 11/17/53
f 48/66/54 12/18/54 20/30/54
